<svg width="20" height="20" viewBox="0 0 20 20" fill="none" xmlns="http://www.w3.org/2000/svg">
<path d="M5.83325 15.8337V4.16699H10.0732C12.5315 4.16699 13.7155 5.5 13.7155 7.23177C13.7155 8.68441 12.836 9.41927 11.7647 9.69271V9.80664C12.9149 9.8693 14.1666 10.889 14.1666 12.6948C14.1666 14.4836 12.9487 15.8337 10.2649 15.8337H5.83325ZM7.58675 14.3127H10.0958C11.7591 14.3127 12.4244 13.5778 12.4244 12.6094C12.4244 11.4928 11.5504 10.5928 10.1578 10.5928H7.58675V14.3127ZM7.58675 9.2085H9.91534C11.0881 9.2085 11.9902 8.49642 11.9902 7.36849C11.9902 6.41146 11.3362 5.68229 9.96045 5.68229H7.58675V9.2085Z" fill="#222222"/>
</svg>
