<svg width="20" height="20" viewBox="0 0 20 20" fill="none" xmlns="http://www.w3.org/2000/svg">
<path d="M10.1755 3.92871C12.4209 3.92871 14.03 5.23066 14.1189 6.96973H12.7664C12.6143 5.80735 11.5383 5.14746 10.1267 5.14746C9.33874 5.14752 8.6819 5.35259 8.22144 5.70312C7.76043 6.05424 7.4978 6.55068 7.4978 7.12598C7.49792 7.76304 7.85519 8.19733 8.32007 8.49902C8.78385 8.79997 9.35926 8.97186 9.80737 9.08594L10.9783 9.41211H10.9792C11.6128 9.57457 12.4404 9.83759 13.1091 10.3311C13.7761 10.8233 14.2849 11.544 14.2849 12.627C14.2849 13.5753 13.903 14.4182 13.1843 15.0244C12.4652 15.631 11.4053 16.0029 10.0457 16.0029C8.78308 16.0029 7.76302 15.675 7.0437 15.1084C6.33643 14.5511 5.91776 13.7606 5.84351 12.8154H7.25952C7.33507 13.4689 7.67503 13.9519 8.17163 14.2715C8.67659 14.5964 9.34029 14.752 10.0457 14.752C10.866 14.752 11.5869 14.5425 12.1042 14.168C12.6224 13.7928 12.9352 13.2523 12.9353 12.5947C12.9353 12.0085 12.6533 11.6018 12.2175 11.2988C11.7841 10.9976 11.1962 10.7962 10.5779 10.6172H10.5769L9.12964 10.2266C8.20534 9.959 7.46381 9.59158 6.95386 9.0957C6.44515 8.60101 6.16479 7.97668 6.16479 7.19043C6.16499 5.23652 7.91067 3.92884 10.1755 3.92871Z" fill="#222222" stroke="white" stroke-width="0.0833333"/>
<path d="M5 10H15" stroke="#222222"/>
</svg>
